 <svg
        xmlns="http://www.w3.org/2000/svg"
        viewBox="0 0 1440 320"
      >
        <path
          fill="#19e4c9"
          fill-opacity="1"
          d="M0,256L21.8,218.7C43.6,181,87,107,131,96C174.5,85,218,139,262,170.7C305.5,203,349,213,393,202.7C436.4,192,480,160,524,170.7C567.3,181,611,235,655,213.3C698.2,192,742,96,785,58.7C829.1,21,873,43,916,85.3C960,128,1004,192,1047,197.3C1090.9,203,1135,149,1178,144C1221.8,139,1265,181,1309,197.3C1352.7,213,1396,203,1418,197.3L1440,192L1440,320L1418.2,320C1396.4,320,1353,320,1309,320C1265.5,320,1222,320,1178,320C1134.5,320,1091,320,1047,320C1003.6,320,960,320,916,320C872.7,320,829,320,785,320C741.8,320,698,320,655,320C610.9,320,567,320,524,320C480,320,436,320,393,320C349.1,320,305,320,262,320C218.2,320,175,320,131,320C87.3,320,44,320,22,320L0,320Z"
        ></path>
      </svg>